<svg width="967" height="376" viewBox="0 0 967 376" fill="none" xmlns="http://www.w3.org/2000/svg">
<g clip-path="url(#clip0_47_2)">
<path fill-rule="evenodd" clip-rule="evenodd" d="M117.144 150.76H153.232L135.252 96.561L117.144 150.76ZM54.6045 227.473C58.5844 222.851 61.8197 218.394 64.3746 214.165C66.8766 209.974 68.9062 205.646 70.4218 201.277L111.695 83.2457C111.959 82.5088 112.344 81.4353 112.824 80.0898C114.676 75.2898 115.633 71.446 115.633 68.6038C115.633 65.9581 115.032 63.4069 113.773 60.9842C112.56 58.5276 110.315 55.4169 107.034 51.6109H169.185L219.101 195.838C221.263 202.15 224.03 208.031 227.401 213.428C230.731 218.829 234.405 223.497 238.464 227.473H162.227C166.112 223.066 168.626 219.653 169.828 217.231C170.995 214.766 171.604 212.177 171.604 209.365C171.604 207.68 171.472 206.081 171.302 204.565C171.082 203.057 170.742 201.715 170.345 200.635L161.448 175.308H108.542L100.288 199.512C99.2976 202.623 98.6474 204.913 98.3413 206.342C98.039 207.766 97.9142 209.021 97.9142 210.144C97.9142 213.167 98.606 216.108 99.9854 219.007C101.369 221.853 103.485 224.706 106.256 227.473H54.6045Z" fill="#702E2B"/>
<path fill-rule="evenodd" clip-rule="evenodd" d="M761.413 227.473C764.618 223.746 767.229 220.156 769.285 216.747C771.307 213.364 772.944 209.887 774.165 206.364L807.432 111.226C807.64 110.64 807.954 109.763 808.339 108.686C809.836 104.816 810.6 101.724 810.6 99.4221C810.6 97.2981 810.116 95.2383 809.107 93.2917C808.128 91.3037 806.317 88.7941 803.672 85.7327H853.766L893.999 201.98C895.738 207.063 897.967 211.795 900.685 216.153C903.368 220.511 906.332 224.268 909.605 227.473H848.153C851.29 223.924 853.312 221.165 854.284 219.219C855.225 217.231 855.716 215.144 855.716 212.88C855.716 211.52 855.61 210.235 855.47 209.018C855.296 207.793 855.017 206.712 854.703 205.847L847.526 185.433H804.889L798.233 204.936C797.435 207.445 796.914 209.293 796.668 210.439C796.422 211.591 796.32 212.604 796.32 213.504C796.32 215.945 796.88 218.311 797.991 220.651C799.106 222.941 800.814 225.251 803.044 227.473H761.413ZM811.82 165.64H840.908L826.417 121.96L811.82 165.64Z" fill="#702E2B"/>
<path fill-rule="evenodd" clip-rule="evenodd" d="M622.945 225.685C626.532 221.815 629.072 217.639 630.538 213.179C632.001 208.723 632.734 201.054 632.734 190.184V114.034C632.734 106.547 631.861 100.764 630.119 96.6857C628.414 92.6114 625.519 88.3594 621.517 83.9412H665.201L729.468 170.674V114.767C729.468 107.866 728.704 102.189 727.136 97.6609C725.567 93.1368 723.027 88.571 719.471 83.9412H759.984C757.058 88.7789 754.934 93.5222 753.612 98.1862C752.285 102.82 751.623 108.565 751.623 115.357V121.181V229.276C731.841 226.97 714.282 215.791 698.986 195.797C698.43 195.029 698.018 194.504 697.735 194.16L654.89 138.317V198.548C654.89 205.756 655.619 211.221 657.052 215.019C658.477 218.784 660.881 222.333 664.293 225.685H622.945Z" fill="#702E2B"/>
<path fill-rule="evenodd" clip-rule="evenodd" d="M511.086 227.473C514.083 224.687 516.177 221.622 517.394 218.349C518.611 215.035 519.239 209.709 519.239 202.366V110.64C519.239 103.009 518.611 97.6459 517.394 94.5088C516.177 91.3756 514.083 88.4501 511.086 85.7327H594.032V115.236C590.827 112.242 587.758 110.115 584.833 108.894C581.907 107.677 578.245 107.053 573.827 107.053H559.332V142.373H586.469V169.616C584.833 167.314 582.742 165.534 580.135 164.317C577.553 163.104 574.594 162.476 571.283 162.476H559.332V205.113C562.677 205.805 565.572 206.259 568.078 206.538C570.546 206.814 572.885 206.961 575.047 206.961C582.814 206.961 589.466 206.156 595.007 204.52C600.544 202.88 605.733 200.238 610.579 196.541L603.016 227.473H511.086Z" fill="#702E2B"/>
<path fill-rule="evenodd" clip-rule="evenodd" d="M463.01 202.366C463.01 209.709 463.641 215.035 464.896 218.349C466.147 221.66 468.241 224.687 471.163 227.473H415.15C418.071 224.687 420.165 221.66 421.424 218.349C422.675 215.035 423.302 209.709 423.302 202.366V110.432C422.433 110.285 421.492 110.186 420.483 110.115C419.504 110.05 418.007 110.009 415.951 110.009C411.321 110.009 406.722 110.64 402.088 111.895C397.45 113.146 392.541 115.13 387.385 117.779L395.746 85.7327H499.558L492.313 117.779C490.049 115.13 487.264 113.146 483.881 111.895C480.502 110.64 476.428 110.009 471.582 110.009C470.785 110.009 469.076 110.077 466.499 110.217C465.07 110.285 463.883 110.364 463.01 110.432V202.366Z" fill="#702E2B"/>
<path fill-rule="evenodd" clip-rule="evenodd" d="M239.793 87.1873C240.853 84.2345 243.986 80.1998 246.429 77.2958C248.87 74.3929 250.622 72.6216 251.727 71.5388C252.833 70.4561 253.294 70.0629 254.86 70.3582C256.427 70.6526 259.099 71.6376 262.048 72.8181C264.998 73.9997 268.223 75.3769 270.02 76.2132C271.816 77.0504 272.185 77.3457 270.942 80.9373C269.697 84.5298 266.841 91.4186 264.49 98.7504C262.141 106.082 260.297 113.857 258.915 120.401C257.533 126.947 256.612 132.261 256.196 138.412C255.782 144.562 255.874 151.55 256.98 158.39C258.086 165.229 260.205 171.922 262.832 177.68C265.458 183.437 268.591 188.259 272.416 192.491C276.24 196.722 280.755 200.364 285.87 202.971C290.984 205.58 296.697 207.155 302.457 207.598C308.217 208.04 314.022 207.351 318.907 205.58C323.791 203.808 327.754 200.954 331.992 197.116C336.231 193.278 340.747 188.455 344.203 182.797C347.658 177.138 350.054 170.642 351.575 164.344C353.095 158.045 353.741 151.944 354.017 145.547C354.293 139.15 354.201 132.457 353.187 125.273C352.173 118.089 350.238 110.413 347.842 102.441C345.447 94.4693 342.59 86.2024 341.392 82.0201C340.194 77.8377 340.654 77.7389 344.018 76.6073C347.382 75.4757 353.648 73.3101 356.92 72.4738C360.191 71.6376 360.467 72.1296 362.771 75.5245C365.075 78.9205 369.406 85.2184 371.526 88.5156C373.645 91.8128 373.553 92.1072 373 92.8456C372.447 93.5841 371.434 94.7646 371.342 96.979C371.25 99.1934 372.079 102.441 373.599 109.478C375.119 116.514 377.332 127.34 378.53 136.787C379.727 146.236 379.912 154.306 379.082 162.08C378.253 169.855 376.41 177.334 374.245 184.076C372.079 190.817 369.59 196.821 365.628 203.365C361.666 209.91 356.228 216.996 351.16 221.966C346.091 226.935 341.392 229.789 336.876 231.905C332.361 234.022 328.03 235.399 322.454 236.236C316.879 237.072 310.06 237.368 302.826 237.368C295.592 237.368 287.943 237.072 282.229 235.842C276.516 234.613 272.738 232.447 268.591 229.544C264.444 226.64 259.929 222.999 255.46 218.275C250.99 213.551 246.567 207.745 242.973 201.692C239.379 195.639 236.614 189.341 234.633 182.649C232.651 175.957 231.453 168.871 230.947 162.08C230.44 155.29 230.625 148.795 231.223 141.906C231.823 135.016 232.836 127.733 234.08 120.992C235.324 114.251 236.798 108.051 237.951 103.622C239.103 99.1934 239.931 96.536 239.839 94.2726C239.747 92.0093 238.733 90.1392 239.793 87.1873Z" fill="#E2A839" stroke="#702E2B" stroke-width="3.77947"/>
<path fill-rule="evenodd" clip-rule="evenodd" d="M240.357 126.317C240.956 122.479 242.154 117.361 242.983 114.015C243.812 110.668 244.274 109.094 245.195 108.208C246.116 107.322 247.499 107.126 248.789 107.126C250.079 107.126 251.276 107.322 252.06 108.11C252.844 108.897 253.212 110.275 253.258 111.899C253.304 113.522 253.028 115.392 252.521 117.706C252.014 120.018 251.276 122.774 250.816 125.48C250.356 128.187 250.171 130.843 249.802 132.96C249.434 135.076 248.881 136.65 247.913 137.585C246.946 138.52 245.564 138.816 244.136 138.323C242.707 137.831 241.233 136.552 240.495 134.632C239.758 132.713 239.758 130.155 240.357 126.317Z" fill="white" stroke="#702E2B" stroke-width="2.83467"/>
<path fill-rule="evenodd" clip-rule="evenodd" d="M256.9 204.172C254.684 201.083 252.003 196.653 250.28 193.721C248.559 190.789 247.796 189.354 247.82 188.03C247.843 186.706 248.653 185.494 249.534 184.487C250.415 183.481 251.369 182.681 252.442 182.607C253.515 182.534 254.709 183.188 255.851 184.261C256.993 185.335 258.084 186.827 259.319 188.801C260.554 190.777 261.935 193.234 263.472 195.442C265.008 197.649 266.7 199.609 267.895 201.341C269.091 203.074 269.79 204.58 269.769 205.974C269.747 207.367 269.004 208.648 267.692 209.425C266.38 210.203 264.499 210.479 262.682 209.744C260.866 209.008 259.117 207.261 256.9 204.172Z" fill="white" stroke="#702E2B" stroke-width="2.83467"/>
<path fill-rule="evenodd" clip-rule="evenodd" d="M351.366 205.648C353.582 202.56 356.264 198.13 357.986 195.197C359.707 192.264 360.47 190.83 360.446 189.506C360.423 188.182 359.613 186.97 358.732 185.964C357.851 184.957 356.898 184.157 355.824 184.084C354.751 184.01 353.557 184.664 352.415 185.737C351.273 186.81 350.183 188.303 348.947 190.278C347.712 192.253 346.331 194.71 344.794 196.918C343.258 199.126 341.566 201.085 340.371 202.818C339.176 204.55 338.476 206.057 338.498 207.451C338.52 208.843 339.262 210.124 340.574 210.901C341.886 211.68 343.768 211.956 345.584 211.221C347.4 210.484 349.15 208.737 351.366 205.648Z" fill="white" stroke="#702E2B" stroke-width="2.83467"/>
<path fill-rule="evenodd" clip-rule="evenodd" d="M371.467 128.709C370.868 124.871 369.67 119.753 368.841 116.407C368.011 113.06 367.551 111.486 366.629 110.6C365.707 109.714 364.325 109.517 363.035 109.517C361.745 109.517 360.547 109.714 359.763 110.501C358.981 111.289 358.612 112.667 358.566 114.291C358.519 115.914 358.797 117.784 359.303 120.097C359.809 122.41 360.547 125.166 361.008 127.872C361.468 130.579 361.653 133.235 362.022 135.352C362.39 137.467 362.942 139.042 363.91 139.977C364.878 140.912 366.261 141.208 367.689 140.715C369.118 140.223 370.592 138.943 371.329 137.024C372.066 135.105 372.066 132.547 371.467 128.709Z" fill="white" stroke="#702E2B" stroke-width="2.83467"/>
<path fill-rule="evenodd" clip-rule="evenodd" d="M324.712 212.562C325.109 212.477 325.493 212.406 325.857 212.449C326.216 212.488 326.552 212.64 326.914 213.059C327.277 213.478 327.69 214.17 328.247 215.275C328.816 216.383 329.553 217.903 330.277 219.432C331.002 220.961 331.713 222.493 332.508 224.245C333.298 226 334.169 227.974 334.699 229.33C335.216 230.685 335.403 231.422 335.347 231.933C335.291 232.445 335.012 232.727 334.138 233.118C333.27 233.509 331.8 234.011 329.695 234.526C327.59 235.04 324.85 235.571 321.686 236.06C318.52 236.547 314.954 236.992 311.238 237.368C307.528 237.742 303.681 238.049 300.514 238.104C297.346 238.159 294.859 237.968 292.065 237.675C289.264 237.38 286.15 236.987 283.528 236.318C280.906 235.651 278.763 234.709 277.425 234.09C276.094 233.468 275.551 233.17 275.484 232.647C275.425 232.125 275.831 231.379 276.398 230.21C276.948 229.04 277.629 227.449 278.43 225.875C279.16 224.298 280.017 222.737 280.753 221.442C281.484 220.147 282.114 219.12 282.538 218.196C282.975 217.274 283.219 216.457 283.663 215.829C284.118 215.201 284.757 214.765 285.569 214.573C286.393 214.384 287.379 214.442 289.353 214.66C291.322 214.877 294.301 215.256 297.08 215.519C299.863 215.779 302.449 215.924 305.21 215.819C307.971 215.712 310.918 215.359 313.987 214.82C317.075 214.285 320.285 213.569 322.092 213.158C323.907 212.749 324.316 212.648 324.712 212.562Z" fill="white" stroke="#702E2B" stroke-width="2.83467"/>
<path fill-rule="evenodd" clip-rule="evenodd" d="M419.783 300.846C419.912 301.234 419.76 301.751 419.31 302.104C418.86 302.456 418.111 302.643 417.001 302.737C415.891 302.831 414.421 302.831 413.432 302.67C412.442 302.51 411.934 302.189 411.4 301.533C410.865 300.878 410.303 299.889 409.876 298.9C409.448 297.911 409.154 296.921 408.94 295.678C408.726 294.435 408.592 292.937 408.552 291.64C408.512 290.344 408.566 289.247 408.564 288.255C408.563 287.262 408.505 286.373 408.629 285.583C408.753 284.793 409.058 284.103 409.461 283.854C409.865 283.606 410.367 283.799 410.814 284.332C411.261 284.865 411.654 285.737 412.054 287.068C412.454 288.398 412.863 290.187 413.24 291.741C413.618 293.295 413.964 294.613 414.424 295.728C414.884 296.842 415.457 297.752 416.212 298.421C416.966 299.089 417.901 299.517 418.574 299.859C419.246 300.202 419.654 300.459 419.783 300.846Z" fill="#702E2B" stroke="#702E2B" stroke-width="0.755867"/>
<path fill-rule="evenodd" clip-rule="evenodd" d="M439.105 263.889C438.571 264.296 438.571 264.296 438.571 264.296C438.571 264.296 438.571 264.296 438.282 263.879C437.992 263.462 437.413 262.629 437.336 261.969C437.26 261.309 437.686 260.821 438.326 260.516C438.966 260.212 439.819 260.09 440.66 260.168C441.502 260.246 442.332 260.524 442.515 260.839C442.699 261.153 442.236 261.505 441.471 262.087C440.706 262.669 439.639 263.482 439.105 263.889Z" fill="#E2A839" stroke="#702E2B" stroke-width="1.51187"/>
<path fill-rule="evenodd" clip-rule="evenodd" d="M470.709 308.026C471.029 309.047 471.272 309.891 471.927 310.602C472.582 311.314 473.648 311.892 474.851 312.227C476.055 312.563 477.395 312.654 478.72 312.593C480.045 312.532 481.355 312.319 482.543 311.633C483.731 310.948 484.797 309.79 485.772 308.526C486.747 307.262 487.63 305.891 488.348 303.926C489.066 301.96 489.619 299.4 489.879 297.07C490.139 294.74 490.106 292.64 489.845 291.102C489.584 289.564 489.095 288.589 488.454 287.599C487.813 286.608 487.021 285.603 486.305 285.085C485.59 284.567 484.95 284.537 484.036 284.491C483.122 284.445 481.934 284.384 480.136 284.872C478.339 285.359 475.933 286.395 474.394 287.903C472.856 289.41 472.186 291.391 471.729 292.381C471.272 293.371 471.028 293.371 470.724 294.467C470.419 295.564 470.053 297.758 469.855 299.631C469.657 301.505 469.627 303.058 469.81 304.433C469.993 305.809 470.389 307.006 470.709 308.026Z" fill="#702E2B" stroke="#702E2B" stroke-width="0.755867"/>
<path fill-rule="evenodd" clip-rule="evenodd" d="M405.182 294.635C404.786 292.746 404.908 289.7 404.908 287.994C404.908 286.288 404.786 285.923 404.938 285.648C405.091 285.374 405.517 285.191 405.852 284.826C406.187 284.461 406.431 283.912 406.736 282.816C407.04 281.719 407.406 280.074 407.863 278.581C408.32 277.089 408.868 275.748 409.569 274.682C410.27 273.615 411.123 272.824 412.341 271.94C413.56 271.057 415.144 270.082 417.306 269.259C419.469 268.437 422.211 267.767 424.77 267.127C427.329 266.487 429.705 265.878 431.898 265.451C434.092 265.025 436.102 264.781 437.168 264.659C438.235 264.537 438.356 264.537 439.758 263.441C441.159 262.344 443.84 260.151 446.709 258.36C449.578 256.569 452.635 255.18 455.59 254.358C458.545 253.535 461.397 253.279 464.834 253.212C468.271 253.144 472.292 253.266 476.892 253.754C481.492 254.241 486.671 255.094 490.783 256.008C494.896 256.922 497.942 257.896 500.409 259.359C502.877 260.821 504.766 262.771 506.494 264.465C508.224 266.159 509.792 267.599 510.066 267.964C510.341 268.33 509.32 267.622 509.438 268.041C509.555 268.46 510.81 270.007 511.907 271.104C513.003 272.2 513.942 272.847 514.654 273.445C515.367 274.042 515.854 274.59 516.129 275.139C516.403 275.687 516.464 276.235 516.646 276.784C516.829 277.332 517.134 277.88 517.408 278.703C517.682 279.526 517.926 280.622 518.108 281.841C518.291 283.059 518.413 284.4 518.352 285.466C518.291 286.532 518.048 287.324 517.895 286.806C517.743 286.288 517.682 284.461 517.499 283.242C517.317 282.023 517.012 281.414 516.585 281.17C516.159 280.927 515.611 281.049 515.078 281.751C514.546 282.453 514.03 283.736 513.604 285.445C513.177 287.154 512.84 289.29 512.332 291.108C511.824 292.927 511.146 294.428 510.719 295.308C510.293 296.188 510.119 296.448 508.691 297.064C507.264 297.682 504.583 298.656 501.598 299.723C498.612 300.788 495.322 301.946 493.19 302.677C491.057 303.408 490.083 303.713 489.595 303.774C489.108 303.835 489.108 303.652 489.199 303.012C489.291 302.373 489.473 301.276 489.747 299.601C490.022 297.925 490.387 295.671 490.432 294.061C490.477 292.451 490.202 291.486 490.019 290.176C489.836 288.866 489.746 287.212 489.397 286.08C489.047 284.948 488.438 284.339 487.615 283.821C486.792 283.303 485.757 282.877 484.812 283.211C483.868 283.547 483.015 284.643 482.11 286.029C481.206 287.416 480.25 289.091 479.306 291.163C478.361 293.234 477.429 295.702 476.749 297.666C476.07 299.631 475.643 301.093 475.339 302.312C475.034 303.53 474.851 304.505 474.851 305.389C474.851 306.272 475.034 307.064 475.095 307.521C475.156 307.978 475.095 308.099 473.907 308.161C472.719 308.222 470.403 308.222 468.728 308.161C467.053 308.099 466.017 307.978 465.103 307.886C464.189 307.795 463.397 307.734 461.386 307.643C459.376 307.551 456.147 307.429 453.283 307.216C450.42 307.003 447.922 306.698 446.307 306.485C444.693 306.272 443.962 306.15 442.987 305.632C442.012 305.114 440.793 304.201 439.819 303.622C438.844 303.043 438.112 302.799 436.681 302.434C435.249 302.068 433.117 301.581 431.045 301.185C428.974 300.788 426.963 300.484 425.013 300.088C423.064 299.692 421.175 299.204 419.652 298.9C418.129 298.595 416.971 298.473 416.027 298.26C415.083 298.047 414.351 297.742 413.468 297.712C412.584 297.681 411.549 297.925 410.818 298.169C410.087 298.413 409.66 298.656 409.142 298.626C408.624 298.595 408.015 298.291 407.254 297.773C406.492 297.255 405.578 296.524 405.182 294.635Z" fill="#E2A839" stroke="#702E2B" stroke-width="1.88973"/>
<path fill-rule="evenodd" clip-rule="evenodd" d="M452.187 286.38C453.832 287.019 457.853 287.202 461.447 287.385C465.042 287.568 468.21 287.751 469.733 287.781C471.256 287.811 471.135 287.689 471.409 287.08C471.683 286.471 472.353 285.374 473.115 284.491C473.876 283.607 474.729 282.937 475.491 282.358C476.252 281.78 476.923 281.292 477.258 281.049C477.593 280.805 477.593 280.805 475.978 280.622C474.364 280.439 471.135 280.074 468.472 280.056C465.808 280.039 463.712 280.369 461.61 280.644C459.508 280.918 457.401 281.136 455.799 281.61C454.197 282.084 453.101 282.815 452.187 283.729C451.273 284.643 450.542 285.74 452.187 286.38Z" fill="white" stroke="#702E2B" stroke-width="1.88973"/>
<path fill-rule="evenodd" clip-rule="evenodd" d="M407.9 278.495C408.039 279.079 408.557 279.576 409.181 279.947C409.806 280.317 410.537 280.561 410.902 280.683C411.268 280.805 411.268 280.805 411.298 279.891C411.329 278.977 411.39 277.149 411.573 276.175C411.755 275.199 412.06 275.078 412.151 274.514C412.243 273.951 412.121 272.945 411.598 272.9C411.075 272.854 410.151 273.768 409.525 274.54C408.898 275.312 408.569 275.942 408.285 276.591C408 277.242 407.761 277.911 407.9 278.495Z" fill="white" stroke="#702E2B" stroke-width="1.88973"/>
<path fill-rule="evenodd" clip-rule="evenodd" d="M489.71 269.594C490.227 268.132 491.152 265.695 491.832 263.898C492.512 262.1 492.947 260.943 493.518 260.303C494.09 259.663 494.797 259.542 495.858 259.785C496.919 260.029 498.333 260.638 499.86 261.479C501.386 262.32 503.026 263.393 504.113 264.218C505.2 265.044 505.736 265.623 506.343 266.487C506.95 267.351 507.63 268.498 506.923 269.196C506.217 269.893 504.125 270.14 500.902 270.537C497.68 270.935 493.328 271.483 491.206 271.514C489.084 271.544 489.193 271.057 489.71 269.594Z" fill="white" stroke="#702E2B" stroke-width="1.51187"/>
<path fill-rule="evenodd" clip-rule="evenodd" d="M442.744 263.95C444.328 264.864 450.085 265.432 455.919 266.203C461.752 266.975 467.662 267.949 472.78 268.741C477.897 269.534 482.223 270.143 484.508 270.539C486.792 270.935 487.036 271.118 487.798 269.259C488.559 267.401 489.839 263.502 490.205 261.369C490.57 259.237 490.022 258.872 488.59 258.323C487.158 257.775 484.843 257.044 481.461 256.495C478.08 255.947 473.632 255.581 469.642 255.398C465.651 255.216 462.117 255.216 459.592 255.323C457.066 255.43 455.549 255.644 453.508 256.527C451.468 257.411 448.902 258.964 446.326 260.37C443.749 261.776 441.16 263.036 442.744 263.95Z" fill="white" stroke="#702E2B" stroke-width="1.51187"/>
<path fill-rule="evenodd" clip-rule="evenodd" d="M493.571 271.517C493.51 270.938 493.776 270.48 493.849 269.915C493.921 269.351 493.799 268.68 494.104 267.98C494.408 267.279 495.14 266.548 495.911 266.145C496.684 265.742 497.496 265.667 498.38 265.88C499.263 266.093 500.217 266.595 501.164 267.351C502.111 268.107 503.051 269.118 503.521 269.624C503.991 270.129 503.991 270.129 503.991 270.129C503.991 270.129 503.991 270.129 503.734 270.416C503.478 270.702 502.964 271.276 502.449 271.344C501.934 271.412 501.418 270.974 500.354 270.853C499.289 270.73 497.676 270.924 496.869 271.02C496.062 271.117 496.062 271.117 496.091 271.513C496.12 271.909 496.178 272.701 495.903 273.098C495.627 273.494 495.017 273.494 494.519 273.144C494.02 272.795 493.632 272.096 493.571 271.517Z" fill="#E2A839" stroke="#702E2B" stroke-width="1.51187"/>
<path fill-rule="evenodd" clip-rule="evenodd" d="M481.719 288.892C482.391 288.497 483.213 287.918 484.112 287.766C485.011 287.613 485.986 287.888 486.777 288.543C487.57 289.197 488.179 290.233 488.62 291.513C489.062 292.792 489.336 294.315 489.275 295.945C489.214 297.575 488.818 299.311 488.575 300.438C488.331 301.565 488.24 302.083 487.981 302.906C487.722 303.728 487.296 304.856 486.793 305.785C486.29 306.714 485.711 307.445 485.117 308.024C484.523 308.603 483.914 309.029 483.244 309.242C482.573 309.455 481.843 309.455 481.187 309.227C480.533 308.998 479.954 308.541 479.481 307.993C479.009 307.445 478.644 306.805 478.354 305.967C478.065 305.13 477.852 304.094 477.699 302.997C477.547 301.901 477.456 300.743 477.547 299.616C477.639 298.489 477.913 297.392 478.233 296.204C478.552 295.016 478.918 293.737 479.221 292.639C479.523 291.541 479.763 290.624 480.143 290.061C480.524 289.497 481.046 289.287 481.719 288.892Z" fill="white" stroke="#702E2B" stroke-width="0.755867"/>
<path fill-rule="evenodd" clip-rule="evenodd" d="M510.289 268.358C510.693 268.036 511.803 268.109 512.519 268.225C513.235 268.342 513.556 268.502 513.863 268.81C514.17 269.117 514.465 269.572 514.612 270C514.759 270.428 514.759 270.829 514.692 271.123C514.625 271.417 514.491 271.604 514.237 271.644C513.983 271.684 513.609 271.578 513.382 271.31C513.155 271.043 513.075 270.615 512.728 270.366C512.382 270.117 511.771 270.047 511.354 270.035C510.937 270.021 510.715 270.066 510.452 269.731C510.189 269.395 509.886 268.68 510.289 268.358Z" fill="#FFEC00" stroke="#702E2B" stroke-width="1.51187"/>
<path fill-rule="evenodd" clip-rule="evenodd" d="M506.164 298.604C506.036 298.992 506.187 299.509 506.637 299.862C507.088 300.214 507.836 300.401 508.946 300.495C510.055 300.589 511.526 300.589 512.516 300.428C513.505 300.268 514.013 299.947 514.547 299.292C515.082 298.637 515.644 297.647 516.072 296.658C516.5 295.669 516.794 294.68 517.008 293.436C517.221 292.193 517.355 290.695 517.395 289.398C517.435 288.102 517.382 287.006 517.383 286.013C517.386 285.02 517.442 284.131 517.318 283.341C517.194 282.551 516.89 281.861 516.487 281.613C516.083 281.364 515.581 281.557 515.133 282.09C514.686 282.623 514.294 283.495 513.893 284.826C513.493 286.156 513.085 287.946 512.707 289.499C512.33 291.053 511.983 292.372 511.523 293.486C511.063 294.6 510.49 295.51 509.735 296.179C508.981 296.847 508.046 297.275 507.374 297.617C506.702 297.96 506.293 298.217 506.164 298.604Z" fill="#702E2B" stroke="#702E2B" stroke-width="0.755867"/>
<path fill-rule="evenodd" clip-rule="evenodd" d="M512.489 294.692C512.435 295.401 512.435 296.39 512.609 297.032C512.783 297.673 513.131 297.967 513.623 298.048C514.117 298.128 514.755 297.996 515.183 297.34C515.61 296.685 515.828 295.508 516.14 294.408C516.452 293.308 516.86 292.285 516.98 291.256C517.101 290.227 516.934 289.191 516.953 288.289C516.972 287.387 517.178 286.619 517.058 285.764C516.937 284.908 516.491 283.964 515.924 283.649C515.356 283.334 514.667 283.648 514.18 284.631C513.692 285.614 513.405 287.266 513.202 288.794C512.998 290.322 512.877 291.725 512.763 292.64C512.649 293.555 512.542 293.983 512.489 294.692Z" fill="white" stroke="#702E2B" stroke-width="0.755867"/>
<path fill-rule="evenodd" clip-rule="evenodd" d="M550.086 251.521C555.31 251.521 559.433 252.806 562.469 255.362C565.51 257.918 567.031 261.362 567.031 265.691C567.031 270.556 565.409 274.383 562.168 277.166C558.926 279.958 554.479 281.344 548.839 281.344C548.203 281.344 547.179 281.291 545.767 281.191C545.688 281.191 545.624 281.191 545.574 281.191C548.022 279.877 549.835 278.217 551.017 276.234C552.197 274.24 552.785 271.787 552.785 268.882C552.785 266.018 552.054 263.748 550.604 262.064C549.152 260.378 547.157 259.523 544.628 259.494V294.943C544.628 297.664 544.862 299.649 545.327 300.881C545.793 302.111 546.574 303.239 547.661 304.278H526.81C527.928 303.239 528.704 302.111 529.158 300.881C529.612 299.649 529.846 297.664 529.846 294.943V260.794C529.846 258.054 529.612 256.085 529.158 254.879C528.704 253.675 527.928 252.56 526.81 251.521H550.086Z" fill="#702E2B"/>
<path fill-rule="evenodd" clip-rule="evenodd" d="M371.91 291.057C371.91 293.529 372.399 295.425 373.367 296.715C374.349 298.015 375.76 298.662 377.616 298.662C379.604 298.662 381.092 298.022 382.091 296.744C383.099 295.476 383.598 293.572 383.598 291.057V272.625C383.598 270.989 383.443 269.658 383.141 268.653C382.843 267.642 382.241 266.72 381.333 265.891H396.537C395.744 266.627 395.178 267.415 394.841 268.263C394.502 269.114 394.33 270.561 394.33 272.625V297.425C394.33 299.407 394.502 300.853 394.841 301.746C395.178 302.63 395.744 303.461 396.537 304.214H383.813V300.155C382.267 301.906 380.609 303.186 378.82 304.003C377.041 304.825 375.015 305.229 372.755 305.229C370.825 305.229 369.11 304.916 367.627 304.288C366.136 303.667 364.844 302.73 363.762 301.512C362.83 300.399 362.161 299.128 361.767 297.664C361.371 296.214 361.172 294.124 361.172 291.386V272.625C361.172 270.561 361.003 269.114 360.673 268.263C360.343 267.415 359.777 266.627 358.97 265.891H374.112C373.302 266.644 372.736 267.453 372.409 268.33C372.079 269.204 371.91 270.635 371.91 272.625V291.057ZM351.689 297.425C351.689 299.407 351.859 300.853 352.196 301.746C352.54 302.639 353.101 303.461 353.892 304.214H338.749C339.559 303.461 340.125 302.639 340.453 301.746C340.782 300.853 340.952 299.407 340.952 297.425V272.625C340.952 270.561 340.782 269.114 340.453 268.263C340.125 267.415 339.559 266.627 338.749 265.891H353.892C353.084 266.644 352.516 267.453 352.186 268.33C351.859 269.204 351.689 270.635 351.689 272.625V297.425ZM308.453 304.214C309.261 303.461 309.827 302.639 310.156 301.746C310.488 300.853 310.658 299.407 310.658 297.425V272.625C310.658 270.561 310.488 269.114 310.156 268.263C309.827 267.415 309.261 266.627 308.453 265.891H323.595C322.788 266.644 322.219 267.465 321.892 268.33C321.56 269.204 321.393 270.635 321.393 272.625V297.704C322.458 298.051 323.502 298.309 324.51 298.473C325.518 298.638 326.533 298.724 327.542 298.724C328.929 298.724 330.236 298.514 331.469 298.098C332.711 297.685 333.982 297.035 335.293 296.13L333.251 304.214H308.453ZM268.05 304.214C268.917 303.206 269.622 302.236 270.179 301.314C270.726 300.399 271.168 299.455 271.497 298.502L280.493 272.785C280.548 272.625 280.632 272.391 280.737 272.099C281.143 271.051 281.348 270.212 281.348 269.591C281.348 269.018 281.217 268.464 280.945 267.934C280.682 267.399 280.192 266.72 279.476 265.891H293.02L303.896 297.322C304.366 298.696 304.968 299.971 305.701 301.154C306.43 302.329 307.228 303.347 308.114 304.214H291.503C292.348 303.251 292.895 302.508 293.158 301.978C293.411 301.445 293.545 300.879 293.545 300.265C293.545 299.9 293.517 299.551 293.478 299.219C293.431 298.889 293.357 298.598 293.273 298.366L291.331 292.846H279.803L278.007 298.12C277.787 298.798 277.648 299.295 277.581 299.608C277.517 299.914 277.488 300.189 277.488 300.435C277.488 301.096 277.636 301.734 277.94 302.369C278.241 302.991 278.702 303.612 279.306 304.214H268.05ZM281.678 287.495H289.542L285.624 275.687L281.678 287.495ZM231.634 304.214C232.442 303.461 233.008 302.63 233.337 301.746C233.667 300.853 233.834 299.407 233.834 297.425V272.625C233.834 270.635 233.667 269.204 233.337 268.33C233.008 267.465 232.442 266.644 231.634 265.891H246.936C253.914 265.891 259.341 267.585 263.22 270.977C267.097 274.374 269.042 279.084 269.042 285.123C269.042 288.228 268.485 291.064 267.374 293.617C266.261 296.183 264.623 298.392 262.475 300.265C260.894 301.651 258.999 302.647 256.787 303.27C254.583 303.901 251.785 304.214 248.405 304.214H231.634ZM244.347 298.051C244.97 298.223 245.57 298.345 246.155 298.431C246.729 298.514 247.314 298.552 247.906 298.552C250.921 298.552 253.35 297.365 255.206 294.984C257.05 292.602 257.972 289.425 257.972 285.453C257.972 281.365 257.069 278.153 255.271 275.807C253.472 273.461 251.016 272.295 247.906 272.295C247.371 272.295 246.805 272.324 246.21 272.379C245.608 272.436 244.985 272.51 244.347 272.625V298.051ZM195.347 283.766C195.347 288.51 196.317 292.327 198.254 295.201C200.196 298.079 202.747 299.522 205.915 299.522C208.982 299.522 211.414 298.392 213.205 296.142C214.982 293.889 215.876 290.772 215.876 286.797C215.876 282.053 214.899 278.246 212.947 275.396C211 272.532 208.437 271.099 205.253 271.099C202.222 271.099 199.809 272.231 198.02 274.491C196.24 276.758 195.347 279.849 195.347 283.766ZM205.583 305.129C199.255 305.129 194.064 303.239 190.025 299.465C185.976 295.698 183.951 290.88 183.951 285.006C183.951 282.328 184.545 279.708 185.73 277.161C186.917 274.612 188.594 272.362 190.77 270.411C192.758 268.669 195.017 267.334 197.549 266.398C200.093 265.468 202.769 265.003 205.583 265.003C211.968 265.003 217.175 266.871 221.215 270.607C225.256 274.34 227.272 279.158 227.272 285.066C227.272 287.751 226.67 290.39 225.464 292.965C224.258 295.559 222.593 297.8 220.455 299.694C218.482 301.455 216.232 302.799 213.693 303.731C211.158 304.665 208.454 305.129 205.583 305.129ZM171.68 297.425C171.68 299.407 171.849 300.853 172.188 301.746C172.528 302.639 173.091 303.461 173.884 304.214H158.74C159.531 303.461 160.097 302.639 160.436 301.746C160.773 300.853 160.942 299.407 160.942 297.425V272.568C160.708 272.532 160.453 272.506 160.18 272.482C159.917 272.465 159.514 272.455 158.957 272.455C157.703 272.455 156.461 272.625 155.207 272.962C153.955 273.303 152.629 273.841 151.232 274.557L153.494 265.891H181.562L179.601 274.557C178.989 273.841 178.234 273.303 177.319 272.962C176.407 272.625 175.303 272.455 173.994 272.455C173.779 272.455 173.318 272.477 172.623 272.51C172.236 272.532 171.916 272.551 171.68 272.568V297.425ZM123.263 291.057C123.263 293.529 123.752 295.425 124.724 296.715C125.704 298.015 127.115 298.662 128.972 298.662C130.959 298.662 132.445 298.022 133.443 296.744C134.451 295.476 134.953 293.572 134.953 291.057V272.625C134.953 270.989 134.8 269.658 134.499 268.653C134.198 267.642 133.596 266.72 132.691 265.891H147.89C147.097 266.627 146.533 267.415 146.197 268.263C145.855 269.114 145.688 270.561 145.688 272.625V297.425C145.688 299.407 145.855 300.853 146.197 301.746C146.533 302.63 147.097 303.461 147.89 304.214H135.165V300.155C133.625 301.906 131.967 303.186 130.175 304.003C128.398 304.825 126.373 305.229 124.111 305.229C122.18 305.229 120.468 304.916 118.979 304.288C117.489 303.667 116.201 302.73 115.117 301.512C114.185 300.399 113.517 299.128 113.12 297.664C112.726 296.214 112.53 294.124 112.53 291.386V272.625C112.53 270.561 112.358 269.114 112.028 268.263C111.699 267.415 111.133 266.627 110.325 265.891H125.467C124.657 266.644 124.091 267.453 123.762 268.33C123.432 269.204 123.263 270.635 123.263 272.625V291.057Z" fill="#702E2B"/>
<path fill-rule="evenodd" clip-rule="evenodd" d="M56.6528 304.278C57.8256 302.909 58.7859 301.598 59.5384 300.346C60.2788 299.104 60.8784 297.828 61.3251 296.539L73.522 261.663C73.596 261.446 73.7107 261.128 73.8516 260.734C74.4034 259.315 74.6828 258.178 74.6828 257.34C74.6828 256.558 74.5038 255.806 74.1335 255.087C73.7752 254.361 73.1111 253.439 72.1412 252.318H90.5034L105.254 294.929C105.892 296.792 106.709 298.528 107.705 300.129C108.689 301.722 109.773 303.103 110.972 304.278H88.4467C89.5982 302.976 90.3362 301.963 90.6946 301.252C91.0408 300.523 91.2176 299.756 91.2176 298.927C91.2176 298.43 91.1795 297.957 91.1292 297.511C91.0648 297.066 90.962 296.665 90.8498 296.345L88.2174 288.864H72.5856L70.1491 296.013C69.8552 296.937 69.6618 297.614 69.5758 298.034C69.4874 298.454 69.4468 298.827 69.4468 299.159C69.4468 300.048 69.6499 300.92 70.0583 301.777C70.4668 302.616 71.0927 303.461 71.912 304.278H56.6528ZM75.1296 281.611H85.7928L80.4779 265.595L75.1296 281.611Z" fill="#702E2B"/>
<path fill-rule="evenodd" clip-rule="evenodd" d="M565.021 305.374V305.012C565.748 304.133 566.355 303.285 566.843 302.474C567.387 301.562 567.832 300.621 568.162 299.668L577.155 273.951C577.212 273.791 577.296 273.552 577.401 273.261C577.805 272.217 578.008 271.378 578.008 270.752C578.008 270.184 577.877 269.625 577.607 269.099C577.341 268.561 576.854 267.886 576.137 267.057H589.679L600.557 298.483C601.03 299.857 601.632 301.142 602.366 302.314C603.09 303.492 603.892 304.507 604.776 305.374H588.163C589.01 304.412 589.557 303.671 589.82 303.144C590.073 302.606 590.205 302.039 590.205 301.43C590.205 301.063 590.178 300.716 590.14 300.384C590.095 300.055 590.018 299.763 589.935 299.527L587.992 294.007H576.467L574.666 299.281C574.451 299.96 574.308 300.461 574.243 300.769C574.179 301.079 574.15 301.354 574.15 301.603C574.15 302.257 574.3 302.9 574.601 303.528C574.905 304.151 575.366 304.77 575.97 305.374H565.021ZM881.371 305.374C882.181 304.622 882.747 303.793 883.077 302.907C883.404 302.014 883.576 300.573 883.576 298.583V273.791C883.576 271.727 883.404 270.275 883.077 269.429C882.747 268.578 882.181 267.788 881.371 267.057H903.794V275.035C902.93 274.223 902.1 273.648 901.31 273.318C900.517 272.986 899.531 272.816 898.334 272.816H894.416V282.366H901.754V289.733C901.31 289.109 900.744 288.63 900.037 288.302C899.339 287.97 898.539 287.803 897.648 287.803H894.416V299.331C895.321 299.512 896.1 299.639 896.781 299.713C897.45 299.792 898.08 299.826 898.661 299.826C900.766 299.826 902.561 299.613 904.062 299.171C905.557 298.727 906.957 298.01 908.27 297.011L906.226 305.374H881.371ZM866.332 306.287C862.67 305.282 859.957 304.039 858.184 302.558C856.426 301.087 854.871 298.397 853.526 294.48L846.216 273.404C845.813 272.224 845.366 271.123 844.907 270.093C844.437 269.059 843.918 268.046 843.345 267.057H855.843C856.048 268.619 856.462 270.312 857.085 272.133C857.197 272.441 857.272 272.659 857.309 272.764L864.645 294.697L871.107 275.136C871.401 274.223 871.597 273.497 871.709 272.971C871.824 272.45 871.881 271.961 871.881 271.526C871.881 270.819 871.721 270.143 871.408 269.464C871.098 268.796 870.534 267.998 869.721 267.057H879.63L866.332 306.287ZM817.36 292.218C817.36 294.697 817.85 296.589 818.822 297.876C819.799 299.176 821.214 299.826 823.067 299.826C825.055 299.826 826.541 299.188 827.541 297.905C828.549 296.634 829.048 294.73 829.048 292.218V273.791C829.048 272.15 828.901 270.819 828.595 269.811C828.294 268.808 827.692 267.886 826.789 267.057H841.986C841.198 267.788 840.631 268.578 840.292 269.429C839.954 270.275 839.783 271.727 839.783 273.791V298.583C839.783 300.573 839.954 302.014 840.292 302.907C840.631 303.793 841.198 304.622 841.986 305.374H829.264V301.314C827.721 303.067 826.062 304.348 824.273 305.172C822.494 305.99 820.468 306.39 818.209 306.39C816.279 306.39 814.563 306.082 813.075 305.449C811.587 304.827 810.3 303.898 809.212 302.673C808.283 301.562 807.612 300.289 807.218 298.829C806.824 297.38 806.626 295.289 806.626 292.547V273.791C806.626 271.727 806.456 270.275 806.129 269.429C805.797 268.578 805.23 267.788 804.423 267.057H819.566C818.751 267.809 818.189 268.619 817.86 269.493C817.53 270.37 817.36 271.8 817.36 273.791V292.218ZM791.421 298.583C791.421 300.573 791.593 302.014 791.933 302.907C792.27 303.803 792.838 304.622 793.628 305.374H778.484C779.277 304.622 779.841 303.803 780.18 302.907C780.52 302.014 780.689 300.573 780.689 298.583V273.731C780.452 273.692 780.199 273.666 779.927 273.648C779.661 273.63 779.256 273.619 778.699 273.619C777.448 273.619 776.203 273.791 774.954 274.127C773.699 274.465 772.372 275.004 770.979 275.718L773.238 267.057H801.304L799.345 275.718C798.731 275.004 797.979 274.465 797.066 274.127C796.153 273.791 795.05 273.619 793.74 273.619C793.524 273.619 793.063 273.635 792.367 273.676C791.978 273.692 791.661 273.712 791.421 273.731V298.583ZM736.49 284.929C736.49 289.671 737.462 293.488 739.4 296.362C741.337 299.245 743.895 300.688 747.058 300.688C750.128 300.688 752.557 299.553 754.346 297.308C756.128 295.055 757.019 291.938 757.019 287.963C757.019 283.214 756.042 279.411 754.093 276.557C752.144 273.692 749.583 272.262 746.399 272.262C743.365 272.262 740.955 273.391 739.168 275.654C737.386 277.926 736.49 281.014 736.49 284.929ZM746.728 306.287C740.398 306.287 735.21 304.405 731.168 300.63C727.122 296.861 725.096 292.04 725.096 286.174C725.096 283.489 725.688 280.871 726.876 278.329C728.063 275.775 729.737 273.523 731.913 271.574C733.899 269.835 736.163 268.495 738.695 267.563C741.237 266.629 743.912 266.166 746.728 266.166C753.114 266.166 758.321 268.034 762.363 271.772C766.402 275.501 768.418 280.324 768.418 286.229C768.418 288.916 767.814 291.548 766.612 294.13C765.404 296.72 763.738 298.96 761.598 300.852C759.63 302.615 757.379 303.963 754.836 304.897C752.301 305.826 749.602 306.287 746.728 306.287ZM696.051 292.218C696.051 294.697 696.541 296.589 697.514 297.876C698.488 299.176 699.905 299.826 701.758 299.826C703.748 299.826 705.234 299.188 706.232 297.905C707.24 296.634 707.739 294.73 707.739 292.218V273.791C707.739 272.15 707.589 270.819 707.288 269.811C706.987 268.808 706.383 267.886 705.48 267.057H720.679C719.886 267.788 719.322 268.578 718.983 269.429C718.647 270.275 718.474 271.727 718.474 273.791V298.583C718.474 300.573 718.647 302.014 718.983 302.907C719.322 303.793 719.886 304.622 720.679 305.374H707.954V301.314C706.411 303.067 704.753 304.348 702.964 305.172C701.185 305.99 699.16 306.39 696.899 306.39C694.967 306.39 693.254 306.082 691.766 305.449C690.278 304.827 688.99 303.898 687.906 302.673C686.972 301.562 686.305 300.289 685.909 298.829C685.512 297.38 685.316 295.289 685.316 292.547V273.791C685.316 271.727 685.147 270.275 684.815 269.429C684.485 268.578 683.919 267.788 683.114 267.057H698.254C697.447 267.809 696.881 268.619 696.553 269.493C696.222 270.37 696.051 271.8 696.051 273.791V292.218ZM641.12 305.374C641.93 304.622 642.494 303.793 642.824 302.907C643.153 302.014 643.323 300.573 643.323 298.583V273.791C643.323 271.8 643.153 270.37 642.824 269.493C642.494 268.626 641.93 267.809 641.12 267.057H656.422C663.4 267.057 668.825 268.75 672.704 272.138C676.586 275.542 678.526 280.25 678.526 286.286C678.526 289.394 677.971 292.227 676.861 294.78C675.747 297.341 674.109 299.553 671.961 301.43C670.38 302.816 668.486 303.812 666.274 304.436C664.071 305.062 661.272 305.374 657.892 305.374H641.12ZM653.833 299.219C654.454 299.384 655.058 299.508 655.642 299.596C656.215 299.679 656.798 299.713 657.392 299.713C660.407 299.713 662.837 298.526 664.69 296.145C666.539 293.763 667.458 290.593 667.458 286.613C667.458 282.528 666.555 279.313 664.757 276.972C662.96 274.63 660.503 273.461 657.392 273.461C656.857 273.461 656.291 273.487 655.697 273.545C655.095 273.602 654.473 273.676 653.833 273.791V299.219ZM618.057 285.93C620.099 285.409 621.65 284.526 622.718 283.255C623.781 281.984 624.318 280.41 624.318 278.535C624.318 276.764 623.838 275.372 622.868 274.355C621.905 273.327 620.589 272.816 618.915 272.816C618.666 272.816 618.497 272.816 618.385 272.826C618.27 272.838 618.167 272.867 618.057 272.903V285.93ZM620.26 305.374H605.117C605.927 304.622 606.491 303.803 606.82 302.907C607.153 302.014 607.32 300.573 607.32 298.583V273.791C607.32 271.727 607.153 270.275 606.82 269.429C606.491 268.578 605.927 267.788 605.117 267.057H620.042C625.023 267.057 628.742 267.902 631.202 269.605C633.661 271.309 634.883 273.872 634.883 277.291C634.883 279.333 634.32 281.117 633.19 282.634C632.057 284.148 630.297 285.476 627.906 286.613L634.828 298.483C635.423 299.467 636.138 300.507 636.995 301.577C637.85 302.654 638.832 303.755 639.931 304.88L633.556 305.489C633.378 305.506 633.18 305.515 632.963 305.528C632.758 305.534 632.437 305.546 632.013 305.546C630.027 305.546 628.37 305.038 627.039 304.03C625.704 303.01 624.366 301.218 623.021 298.641L618.057 288.933V298.583C618.057 300.573 618.224 302.014 618.563 302.907C618.903 303.803 619.469 304.622 620.26 305.374ZM578.34 288.661H586.206L582.288 276.848L578.34 288.661Z" fill="#702E2B"/>
<path fill-rule="evenodd" clip-rule="evenodd" d="M392.99 303.338C393.69 303.219 394.819 303.219 395.385 303.219C395.949 303.219 395.949 303.219 395.738 303.382C395.525 303.544 395.1 303.868 394.691 304.288C394.282 304.708 393.888 305.224 393.602 305.725C393.315 306.225 393.136 306.709 393.036 307.197C392.937 307.684 392.918 308.175 393 308.634C393.082 309.094 393.265 309.522 393.501 309.836C393.737 310.148 394.027 310.345 394.45 310.462C394.872 310.58 395.427 310.617 395.932 310.57C396.436 310.521 396.891 310.388 397.178 310.294C397.465 310.198 397.584 310.139 397.644 310.111C397.704 310.08 397.704 310.08 397.704 310.298C397.704 310.516 397.704 310.952 397.704 311.328C397.704 311.705 397.704 312.022 397.704 312.355C397.704 312.687 397.704 313.033 397.704 313.208C397.704 313.381 397.704 313.381 397.397 313.495C397.09 313.608 396.475 313.835 395.82 313.982C395.163 314.129 394.464 314.197 393.811 314.171C393.157 314.145 392.547 314.027 391.971 313.795C391.394 313.562 390.849 313.217 390.417 312.795C389.984 312.372 389.663 311.872 389.448 311.318C389.232 310.764 389.124 310.154 389.156 309.44C389.187 308.727 389.356 307.908 389.625 307.181C389.893 306.455 390.259 305.822 390.629 305.297C390.999 304.771 391.371 304.354 391.695 304.026C392.017 303.698 392.288 303.458 392.99 303.338Z" fill="#702E2B"/>
<path fill-rule="evenodd" clip-rule="evenodd" d="M893.521 255.326C895.487 255.326 897.081 256.919 897.081 258.885C897.081 260.851 895.487 262.444 893.521 262.444C891.555 262.444 889.962 260.851 889.962 258.885C889.962 256.919 891.555 255.326 893.521 255.326Z" fill="#702E2B"/>
</g>
<defs>
<clipPath id="clip0_47_2">
<rect width="967" height="376" fill="white"/>
</clipPath>
</defs>
</svg>
